<svg id="visual" viewBox="0 0 900 450" width="900" height="450" xmlns="http://www.w3.org/2000/svg" xmlns:xlink="http://www.w3.org/1999/xlink" version="1.1"><path d="M0 346L21.5 344.2C43 342.3 86 338.7 128.8 333.8C171.7 329 214.3 323 257.2 324.8C300 326.7 343 336.3 385.8 338.3C428.7 340.3 471.3 334.7 514.2 333.3C557 332 600 335 642.8 333.2C685.7 331.3 728.3 324.7 771.2 322.5C814 320.3 857 322.7 878.5 323.8L900 325L900 451L878.5 451C857 451 814 451 771.2 451C728.3 451 685.7 451 642.8 451C600 451 557 451 514.2 451C471.3 451 428.7 451 385.8 451C343 451 300 451 257.2 451C214.3 451 171.7 451 128.8 451C86 451 43 451 21.5 451L0 451Z" fill="#fa7268"></path><path d="M0 333L21.5 338C43 343 86 353 128.8 356.3C171.7 359.7 214.3 356.3 257.2 357.5C300 358.7 343 364.3 385.8 360.3C428.7 356.3 471.3 342.7 514.2 340.2C557 337.7 600 346.3 642.8 352.5C685.7 358.7 728.3 362.3 771.2 365.7C814 369 857 372 878.5 373.5L900 375L900 451L878.5 451C857 451 814 451 771.2 451C728.3 451 685.7 451 642.8 451C600 451 557 451 514.2 451C471.3 451 428.7 451 385.8 451C343 451 300 451 257.2 451C214.3 451 171.7 451 128.8 451C86 451 43 451 21.5 451L0 451Z" fill="#ef5f67"></path><path d="M0 352L21.5 359.2C43 366.3 86 380.7 128.8 383C171.7 385.3 214.3 375.7 257.2 370.2C300 364.7 343 363.3 385.8 363.2C428.7 363 471.3 364 514.2 366C557 368 600 371 642.8 372.7C685.7 374.3 728.3 374.7 771.2 372C814 369.3 857 363.7 878.5 360.8L900 358L900 451L878.5 451C857 451 814 451 771.2 451C728.3 451 685.7 451 642.8 451C600 451 557 451 514.2 451C471.3 451 428.7 451 385.8 451C343 451 300 451 257.2 451C214.3 451 171.7 451 128.8 451C86 451 43 451 21.5 451L0 451Z" fill="#e34c67"></path><path d="M0 413L21.5 408.5C43 404 86 395 128.8 392.3C171.7 389.7 214.3 393.3 257.2 392.2C300 391 343 385 385.8 384.2C428.7 383.3 471.3 387.7 514.2 391C557 394.3 600 396.7 642.8 397.5C685.7 398.3 728.3 397.7 771.2 398.2C814 398.7 857 400.3 878.5 401.2L900 402L900 451L878.5 451C857 451 814 451 771.2 451C728.3 451 685.7 451 642.8 451C600 451 557 451 514.2 451C471.3 451 428.7 451 385.8 451C343 451 300 451 257.2 451C214.3 451 171.7 451 128.8 451C86 451 43 451 21.5 451L0 451Z" fill="#d53867"></path><path d="M0 420L21.5 420.3C43 420.7 86 421.3 128.8 418.8C171.7 416.3 214.3 410.7 257.2 411.5C300 412.3 343 419.7 385.8 423.8C428.7 428 471.3 429 514.2 426.2C557 423.3 600 416.7 642.8 414.7C685.7 412.7 728.3 415.3 771.2 419.2C814 423 857 428 878.5 430.5L900 433L900 451L878.5 451C857 451 814 451 771.2 451C728.3 451 685.7 451 642.8 451C600 451 557 451 514.2 451C471.3 451 428.7 451 385.8 451C343 451 300 451 257.2 451C214.3 451 171.7 451 128.8 451C86 451 43 451 21.5 451L0 451Z" fill="#c62368"></path></svg>