<svg id="visual" viewBox="0 0 900 450" width="900" height="450" xmlns="http://www.w3.org/2000/svg" xmlns:xlink="http://www.w3.org/1999/xlink" version="1.1"><g><g transform="translate(826 104)"><path d="M0 -102.1L88.4 -51L88.4 51L0 102.1L-88.4 51L-88.4 -51Z" fill="#297EA6"></path></g><g transform="translate(259 207)"><path d="M0 -89L77.1 -44.5L77.1 44.5L0 89L-77.1 44.5L-77.1 -44.5Z" fill="#297EA6"></path></g><g transform="translate(508 393)"><path d="M0 -95L82.3 -47.5L82.3 47.5L0 95L-82.3 47.5L-82.3 -47.5Z" fill="#297EA6"></path></g><g transform="translate(369 19)"><path d="M0 -86L74.5 -43L74.5 43L0 86L-74.5 43L-74.5 -43Z" fill="#297EA6"></path></g><g transform="translate(767 361)"><path d="M0 -97L84 -48.5L84 48.5L0 97L-84 48.5L-84 -48.5Z" fill="#297EA6"></path></g><g transform="translate(106 354)"><path d="M0 -52L45 -26L45 26L0 52L-45 26L-45 -26Z" fill="#297EA6"></path></g><g transform="translate(9 6)"><path d="M0 -58L50.2 -29L50.2 29L0 58L-50.2 29L-50.2 -29Z" fill="#297EA6"></path></g><g transform="translate(593 191)"><path d="M0 -74L64.1 -37L64.1 37L0 74L-64.1 37L-64.1 -37Z" fill="#297EA6"></path></g></g></svg>